####
#
#	OBJ File Generated by LightWave3D
#	LightWave3D OBJ Export v2.3
#
####
o shield.obj
mtllib shield.mtl
g default
v -0.1 -0.04 -0
v -0.1 0.04 -0
v -0.0866025 -0.04 0.05
v -0.0866025 -0.04 -0.05
v -0.0866025 0.04 0.05
v -0.0866025 0.04 -0.05
v -0.05 -0.04 0.0866025
v -0.05 -0.04 -0.0866025
v -0.05 0.04 0.0866025
v -0.05 0.04 -0.0866025
v 0 -0.04 0.1
v 0 -0.04 -0.1
v 0 0.04 0.1
v 0 0.04 -0.1
v 0.05 -0.04 0.0866025
v 0.05 -0.04 -0.0866025
v 0.05 0.04 0.0866025
v 0.05 0.04 -0.0866025
v 0.0866025 -0.04 0.05
v 0.0866025 -0.04 -0.05
v 0.0866025 0.04 0.05
v 0.0866025 0.04 -0.05
v 0.1 -0.04 -0
v 0.1 0.04 -0
vt 0 0.5
vt 0.0669873 0.25
vt 0.0669873 0.75
vt 0.25 0.0669873
vt 0.25 0.933013
vt 0.5 0
vt 0.5 1
vt 0.75 0.0669873
vt 0.75 0.933013
vt 0.933013 0.25
vt 0.933013 0.75
vt 1 0.5
vn -0.820795 -0.566499 0.0733104
vn -0.820795 0.566499 -0.0733104
vn -0.747484 -0.566499 -0.346909
vn -0.747484 0.566499 0.346909
vn -0.674174 -0.566499 0.473886
vn -0.674174 0.566499 -0.473886
vn -0.473886 -0.566499 -0.674174
vn -0.473886 0.566499 0.674174
vn -0.293071 -0.717874 0.63148
vn -0.293071 0.717874 -0.63148
vn 0 -0.459701 0.888074
vn 0 -0.459701 -0.888074
vn 0 0.459701 0.888074
vn 0 0.459701 -0.888074
vn 0.251639 -0.95152 0.176881
vn 0.251639 0.95152 -0.176881
vn 0.346909 -0.566499 0.747484
vn 0.346909 0.566499 -0.747484
vn 0.473886 -0.566499 -0.674174
vn 0.473886 0.566499 0.674174
vn 0.747484 -0.566499 -0.346909
vn 0.747484 0.566499 0.346909
vn 0.941945 -0.325058 0.0841311
vn 0.941945 0.325058 -0.0841311
usemtl Default
s off
f 20/11/21 23/12/23 19/10/15
f 16/9/19 20/11/21 19/10/15
f 12/7/12 16/9/19 19/10/15
f 8/5/7 12/7/12 19/10/15
f 4/3/3 8/5/7 19/10/15
f 1/1/1 4/3/3 19/10/15
f 3/2/5 1/1/1 19/10/15
f 3/2/5 19/10/15 7/4/9
f 7/4/9 15/8/17 11/6/11
f 19/10/15 15/8/17 7/4/9
f 20/11/21 24/12/24 23/12/23
f 22/11/16 24/12/24 20/11/21
f 16/9/19 22/11/16 20/11/21
f 18/9/18 22/11/16 16/9/19
f 12/7/12 18/9/18 16/9/19
f 14/7/14 18/9/18 12/7/12
f 10/5/10 12/7/12 8/5/7
f 10/5/10 14/7/14 12/7/12
f 6/3/6 8/5/7 4/3/3
f 6/3/6 10/5/10 8/5/7
f 2/1/2 4/3/3 1/1/1
f 2/1/2 6/3/6 4/3/3
f 5/2/4 1/1/1 3/2/5
f 5/2/4 2/1/2 1/1/1
f 9/4/8 3/2/5 7/4/9
f 9/4/8 5/2/4 3/2/5
f 13/6/13 7/4/9 11/6/11
f 13/6/13 9/4/8 7/4/9
f 15/8/17 13/6/13 11/6/11
f 17/8/20 13/6/13 15/8/17
f 19/10/15 17/8/20 15/8/17
f 21/10/22 17/8/20 19/10/15
f 23/12/23 21/10/22 19/10/15
f 24/12/24 21/10/22 23/12/23
f 24/12/24 22/11/16 21/10/22
f 21/10/22 22/11/16 17/8/20
f 17/8/20 22/11/16 13/6/13
f 22/11/16 9/4/8 13/6/13
f 22/11/16 5/2/4 9/4/8
f 22/11/16 2/1/2 5/2/4
f 22/11/16 6/3/6 2/1/2
f 10/5/10 6/3/6 22/11/16
f 18/9/18 14/7/14 10/5/10
f 18/9/18 10/5/10 22/11/16
