####
#
#	OBJ File Generated by LightWave3D
#	LightWave3D OBJ Export v2.3
#
####
o iBorg.obj
mtllib iBorg.mtl
g default
v -0.4 -0.1 0.4
v -0.4 -0.1 -0
v -0.4 -0.1 -0.4
v -0.4 0.1 0.4
v -0.4 0.1 -0
v -0.4 0.1 -0.4
v 0 -0.1 0.4
v 0 -0.1 -0
v 0 -0.1 -0.4
v 0 0.1 0.4
v 0 0.1 -0
v 0 0.1 -0.4
v 0.103528 -0.1 0.38637
v 0.103528 0.1 0.38637
v 0.2 -0.1 0.34641
v 0.2 0.1 0.34641
v 0.282843 -0.1 0.282843
v 0.282843 0.1 0.282843
v 0.34641 -0.1 0.2
v 0.34641 0.1 0.2
v 0.38637 -0.1 0.103528
v 0.38637 0.1 0.103528
v 0.4 -0.1 -0
v 0.4 -0.1 -0.4
v 0.4 0.1 -0
v 0.4 0.1 -0.4
vt 0 0
vt 0 0.5
vt 0 1
vt 0.5 0
vt 0.5 0.5
vt 0.5 1
vt 0.62941 0.0170371
vt 0.75 0.0669873
vt 0.853553 0.146447
vt 0.933013 0.25
vt 0.982963 0.37059
vt 1 0.5
vt 1 1
vn -0.707107 -0.707107 -0
vn -0.707107 0.707107 -0
vn -0.57735 -0.57735 0.57735
vn -0.57735 -0.57735 -0.57735
vn -0.57735 0.57735 0.57735
vn -0.57735 0.57735 -0.57735
vn 0 -1 -0
vn 0 -0.707107 -0.707107
vn 0 0.707107 -0.707107
vn 0 1 -0
vn 0.0461974 -0.707864 0.704836
vn 0.0461974 0.707864 0.704836
vn 0.182225 -0.710138 0.680072
vn 0.182225 0.710138 0.680072
vn 0.352031 -0.710138 0.609736
vn 0.352031 0.710138 0.609736
vn 0.497847 -0.710138 0.497847
vn 0.497847 0.710138 0.497847
vn 0.57735 -0.57735 -0.57735
vn 0.57735 0.57735 -0.57735
vn 0.609736 -0.710138 0.352031
vn 0.609736 0.710138 0.352031
vn 0.680072 -0.710138 0.182225
vn 0.680072 0.710138 0.182225
vn 0.704836 -0.707864 0.0461974
vn 0.704836 0.707864 0.0461974
usemtl Default
s off
f 1/1/3 2/2/1 8/5/7 7/4/11
f 9/6/8 24/13/19 23/12/25 8/5/7
f 2/2/1 3/3/4 9/6/8 8/5/7
f 10/4/12 4/1/5 1/1/3 7/4/11
f 24/13/19 26/13/20 25/12/26 23/12/25
f 3/3/4 6/3/6 12/6/9 9/6/8
f 12/6/9 26/13/20 24/13/19 9/6/8
f 4/1/5 5/2/2 2/2/1 1/1/3
f 5/2/2 6/3/6 3/3/4 2/2/1
f 11/5/10 5/2/2 4/1/5 10/4/12
f 12/6/9 6/3/6 5/2/2 11/5/10
f 25/12/26 26/13/20 12/6/9 11/5/10
f 23/12/25 25/12/26 22/11/24 21/11/23
f 21/11/23 22/11/24 20/10/22 19/10/21
f 19/10/21 20/10/22 18/9/18 17/9/17
f 17/9/17 18/9/18 16/8/16 15/8/15
f 15/8/15 16/8/16 14/7/14 13/7/13
f 13/7/13 14/7/14 10/4/12 7/4/11
l 25/12/26 11/5/10
f 22/11/24 25/12/26 11/5/10
f 20/10/22 22/11/24 11/5/10
f 18/9/18 20/10/22 11/5/10
f 16/8/16 18/9/18 11/5/10
f 14/7/14 16/8/16 11/5/10
f 10/4/12 14/7/14 11/5/10
l 10/4/12 11/5/10
l 23/12/25 8/5/7
f 23/12/25 21/11/23 8/5/7
f 21/11/23 19/10/21 8/5/7
f 19/10/21 17/9/17 8/5/7
f 17/9/17 15/8/15 8/5/7
f 15/8/15 13/7/13 8/5/7
f 13/7/13 7/4/11 8/5/7
l 7/4/11 8/5/7
