####
#
#	OBJ File Generated by LightWave3D
#	LightWave3D OBJ Export v2.3
#
####
o engine.obj
mtllib engine.mtl
g default
v -0.09 0 0.0583013
v -0.09 0 -0
v -0.081 0 -0
v -0.0779423 -0.045 0.0583013
v -0.0779423 -0.045 -0
v -0.0779423 0.045 0.0583013
v -0.0779423 0.045 -0
v -0.0701481 -0.0405 -0
v -0.0701481 0.0405 -0
v -0.062365 0 -0.0344711
v -0.0540097 -0.0311825 -0.0344711
v -0.0540097 0.0311825 -0.0344711
v -0.045 -0.0779423 0.0583013
v -0.045 -0.0779423 -0
v -0.045 0.0779423 0.0583013
v -0.045 0.0779423 -0
v -0.0405 -0.0701481 -0
v -0.0405 0.0701481 -0
v -0.0344126 0 -0.0524711
v -0.0311825 -0.0540097 -0.0344711
v -0.0311825 0.0540097 -0.0344711
v -0.0298022 -0.0172063 -0.0524711
v -0.0298022 0.0172063 -0.0524711
v -0.0172063 -0.0298022 -0.0524711
v -0.0172063 0.0298022 -0.0524711
v -3.24439e-009 -0.09 0.0583013
v -3.24439e-009 -0.09 -0
v -3.24439e-009 0.09 0.0583013
v -3.24439e-009 0.09 -0
v -2.91996e-009 -0.081 -0
v -2.91996e-009 -0.062365 -0.0344711
v -2.91996e-009 -0.0344126 -0.0524711
v -2.91996e-009 0.0344126 -0.0524711
v -2.91996e-009 0.062365 -0.0344711
v -2.91996e-009 0.081 -0
v 0.0172063 -0.0298022 -0.0524711
v 0.0172063 0.0298022 -0.0524711
v 0.0298022 -0.0172063 -0.0524711
v 0.0298022 0.0172063 -0.0524711
v 0.0311825 -0.0540097 -0.0344711
v 0.0311825 0.0540097 -0.0344711
v 0.0344126 0 -0.0524711
v 0.0405 -0.0701481 -0
v 0.0405 0.0701481 -0
v 0.045 -0.0779423 0.0583013
v 0.045 -0.0779423 -0
v 0.045 0.0779423 0.0583013
v 0.045 0.0779423 -0
v 0.0540097 -0.0311825 -0.0344711
v 0.0540097 0.0311825 -0.0344711
v 0.062365 0 -0.0344711
v 0.0701481 -0.0405 -0
v 0.0701481 0.0405 -0
v 0.0779423 -0.045 0.0583013
v 0.0779423 -0.045 -0
v 0.0779423 0.045 0.0583013
v 0.0779423 0.045 -0
v 0.081 0 -0
v 0.09 0 0.0583013
v 0.09 0 -0
vt 0.03125 0.404681
vt 0.03125 0.708333
vt 0.078125 0.708333
vt 0.0940506 0.404681
vt 0.0940506 0.708333
vt 0.134646 0.708333
vt 0.175182 0.88787
vt 0.218699 0.88787
vt 0.265625 0.404681
vt 0.265625 0.708333
vt 0.289062 0.708333
vt 0.320768 0.981621
vt 0.337591 0.88787
vt 0.34478 0.981621
vt 0.410384 0.981621
vt 0.5 0.404681
vt 0.5 0.708333
vt 0.5 0.88787
vt 0.5 0.981621
vt 0.589616 0.981621
vt 0.65522 0.981621
vt 0.662409 0.88787
vt 0.679232 0.981621
vt 0.710938 0.708333
vt 0.734375 0.404681
vt 0.734375 0.708333
vt 0.7813 0.88787
vt 0.824818 0.88787
vt 0.865354 0.708333
vt 0.905949 0.404681
vt 0.905949 0.708333
vt 0.921875 0.708333
vt 0.96875 0.404681
vt 0.96875 0.708333
vn -0.941945 -0.0841311 0.325058
vn -0.747484 0.346909 0.566499
vn -0.732182 -7.83779e-009 -0.681109
vn -0.66451 -5.78236e-009 -0.747279
vn -0.63148 -0.293071 -0.717874
vn -0.628884 -0.323375 -0.707059
vn -0.628884 0.323375 -0.707059
vn -0.585869 0.0523277 -0.808715
vn -0.569547 -0.400342 0.717874
vn -0.569547 0.400342 -0.717874
vn -0.473886 -0.674174 -0.566499
vn -0.443748 -6.17056e-009 -0.896152
vn -0.414483 -0.291345 -0.862161
vn -0.414483 0.291345 -0.862161
vn -0.359573 -0.665966 -0.653603
vn -0.359573 0.665966 -0.653603
vn -0.346909 -0.747484 0.566499
vn -0.346909 0.747484 -0.566499
vn -0.289211 0.411446 0.864332
vn -0.243094 0.14035 -0.959795
vn -0.194271 0.276379 -0.941208
vn -0.164187 -0.28438 -0.944548
vn -0.164187 0.28438 -0.944548
vn -0.162012 -0.230486 -0.959494
vn -0.0954438 -0.0551045 -0.993908
vn -0.037284 -0.417437 -0.907941
vn -0.0300538 0.336487 -0.941208
vn -2.89118e-009 -0.66451 -0.747279
vn 0 -0.694747 0.719255
vn 0 -0.694747 -0.719255
vn 0 0.434898 -0.90048
vn 0 0.66451 -0.747279
vn 0 0.888074 0.459701
vn 0.030099 -0.696008 -0.717403
vn 0.030099 0.696008 -0.717403
vn 0.142216 -0.306433 -0.941208
vn 0.142216 0.306433 -0.941208
vn 0.164187 -0.28438 -0.944548
vn 0.164187 0.28438 -0.944548
vn 0.230486 -0.162012 -0.959494
vn 0.247617 -0.533541 0.808715
vn 0.276379 0.194271 -0.941208
vn 0.338252 0.481213 0.808715
vn 0.346909 0.747484 -0.566499
vn 0.373179 5.18925e-009 -0.927759
vn 0.396957 -0.644383 -0.653603
vn 0.396957 0.644383 -0.653603
vn 0.414483 -0.291345 -0.862161
vn 0.414483 0.291345 -0.862161
vn 0.473886 -0.674174 -0.566499
vn 0.569547 0.400342 -0.717874
vn 0.585869 0.0523277 -0.808715
vn 0.63148 -0.293071 -0.717874
vn 0.66451 -2.89118e-009 -0.747279
vn 0.665365 -0.308797 -0.679657
vn 0.665365 0.308797 -0.679657
vn 0.674174 -0.473886 0.566499
vn 0.732182 0 -0.681109
vn 0.820795 -0.0733104 0.566499
vn 0.857813 0.398113 0.325058
usemtl Default
s off
f 56/30/60 47/25/43 59/33/59
f 59/33/59 47/25/43 54/30/57
f 54/30/57 47/25/43 45/25/41
f 47/25/43 28/16/33 45/25/41
f 28/16/33 15/9/19 45/25/41
f 45/25/41 15/9/19 26/16/29
f 15/9/19 13/9/17 26/16/29
f 15/9/19 4/4/9 13/9/17
f 6/4/2 1/1/1 4/4/9
f 15/9/19 6/4/2 4/4/9
f 48/26/44 28/16/33 47/25/43
f 29/17/31 28/16/33 48/26/44
f 57/31/51 47/25/43 56/30/60
f 48/26/44 47/25/43 57/31/51
f 60/34/52 56/30/60 59/33/59
f 57/31/51 56/30/60 60/34/52
f 55/31/53 59/33/59 54/30/57
f 60/34/52 59/33/59 55/31/53
f 46/26/50 54/30/57 45/25/41
f 55/31/53 54/30/57 46/26/50
f 27/17/30 45/25/41 26/16/29
f 46/26/50 45/25/41 27/17/30
f 13/9/17 27/17/30 26/16/29
f 13/9/17 14/10/11 27/17/30
f 4/4/9 14/10/11 13/9/17
f 4/4/9 5/5/5 14/10/11
f 1/1/1 5/5/5 4/4/9
f 1/1/1 2/2/8 5/5/5
f 6/4/2 2/2/8 1/1/1
f 6/4/2 7/5/10 2/2/8
f 15/9/19 7/5/10 6/4/2
f 15/9/19 16/10/18 7/5/10
f 28/16/33 16/10/18 15/9/19
f 28/16/33 29/17/31 16/10/18
f 19/12/12 23/14/20 22/14/25
f 23/14/20 25/15/21 22/14/25
f 25/15/21 33/19/27 22/14/25
f 33/19/27 37/20/37 22/14/25
f 37/20/37 39/21/42 22/14/25
f 39/21/42 42/23/45 22/14/25
f 22/14/25 42/23/45 38/21/40
f 22/14/25 38/21/40 24/15/24
f 24/15/24 36/20/36 32/19/26
f 24/15/24 38/21/40 36/20/36
f 35/17/32 44/24/39 41/22/47
f 34/18/35 35/17/32 41/22/47
f 35/17/32 34/18/35 21/13/16
f 18/11/23 35/17/32 21/13/16
f 9/6/14 21/13/16 12/8/7
f 18/11/23 21/13/16 9/6/14
f 12/8/7 10/7/3 3/3/4
f 9/6/14 12/8/7 3/3/4
f 3/3/4 11/8/6 8/6/13
f 3/3/4 10/7/3 11/8/6
f 8/6/13 20/13/15 17/11/22
f 8/6/13 11/8/6 20/13/15
f 20/13/15 31/18/34 30/17/28
f 17/11/22 20/13/15 30/17/28
f 40/22/46 43/24/38 30/17/28
f 31/18/34 40/22/46 30/17/28
f 40/22/46 52/29/48 43/24/38
f 49/27/55 52/29/48 40/22/46
f 49/27/55 58/32/54 52/29/48
f 51/28/58 58/32/54 49/27/55
f 50/27/56 53/29/49 58/32/54
f 51/28/58 50/27/56 58/32/54
f 41/22/47 53/29/49 50/27/56
f 41/22/47 44/24/39 53/29/49
f 34/18/35 41/22/47 37/20/37
f 33/19/27 34/18/35 37/20/37
f 21/13/16 33/19/27 25/15/21
f 21/13/16 34/18/35 33/19/27
f 12/8/7 25/15/21 23/14/20
f 12/8/7 21/13/16 25/15/21
f 12/8/7 19/12/12 10/7/3
f 12/8/7 23/14/20 19/12/12
f 19/12/12 22/14/25 11/8/6
f 10/7/3 19/12/12 11/8/6
f 11/8/6 24/15/24 20/13/15
f 22/14/25 24/15/24 11/8/6
f 20/13/15 32/19/26 31/18/34
f 24/15/24 32/19/26 20/13/15
f 36/20/36 40/22/46 31/18/34
f 32/19/26 36/20/36 31/18/34
f 38/21/40 49/27/55 40/22/46
f 36/20/36 38/21/40 40/22/46
f 42/23/45 51/28/58 49/27/55
f 38/21/40 42/23/45 49/27/55
f 42/23/45 50/27/56 51/28/58
f 39/21/42 50/27/56 42/23/45
f 41/22/47 50/27/56 39/21/42
f 37/20/37 41/22/47 39/21/42
f 29/17/31 48/26/44 44/24/39
f 35/17/32 29/17/31 44/24/39
f 29/17/31 35/17/32 18/11/23
f 16/10/18 29/17/31 18/11/23
f 7/5/10 18/11/23 9/6/14
f 16/10/18 18/11/23 7/5/10
f 2/2/8 9/6/14 3/3/4
f 7/5/10 9/6/14 2/2/8
f 2/2/8 3/3/4 8/6/13
f 2/2/8 8/6/13 5/5/5
f 5/5/5 8/6/13 17/11/22
f 5/5/5 17/11/22 14/10/11
f 17/11/22 30/17/28 27/17/30
f 14/10/11 17/11/22 27/17/30
f 30/17/28 43/24/38 27/17/30
f 43/24/38 46/26/50 27/17/30
f 43/24/38 55/31/53 46/26/50
f 52/29/48 55/31/53 43/24/38
f 52/29/48 60/34/52 55/31/53
f 58/32/54 60/34/52 52/29/48
f 53/29/49 60/34/52 58/32/54
f 53/29/49 57/31/51 60/34/52
f 44/24/39 57/31/51 53/29/49
f 44/24/39 48/26/44 57/31/51
