####
#
#	OBJ File Generated by LightWave3D
#	LightWave3D OBJ Export v2.3
#
####
o enemy.obj
mtllib enemy.mtl
g default
v -2.03469 -0.25 -0.687866
v -2.00723 -0.25 -0.266211
v -1.95681 -0.25 -1.07297
v -1.85 -0.25 1.375
v -1.85 -0.25 0.075
v -1.85 -0.25 -0.125
v -1.83616 -0.25 -1.51257
v -1.83 -0.25 2.475
v -1.83 -0.25 2.375
v -1.8 -0.25 2.475
v -1.8 -0.25 2.375
v -1.8 -0.25 1.375
v -1.75 -0.25 2.475
v -1.75 -0.25 2.375
v -1.75 -0.25 1.375
v -1.72 -0.25 2.475
v -1.72 -0.25 2.375
v -1.70203 -0.25 -1.98206
v -1.7 -0.25 1.375
v -1.7 -0.25 0.075
v -1.68775 -0.25 -0.0436327
v -1.58372 -0.25 -2.45681
v -1.581 -0.25 -0.067456
v -1.5 -0.25 -3.125
v -1.46406 -0.25 -2.49922
v -1.46299 -0.25 -0.0259767
v -1.46 -0.25 -1.75625
v -1.41309 -0.25 -1.41553
v -1.30594 -0.25 -1.13516
v -1.24021 -0.25 0.0386329
v -1.11582 -0.25 -0.94502
v -0.948281 -0.25 0.0153124
v -0.82 -0.25 -0.875
v -0.654219 -0.25 0.100938
v -0.605 -0.25 1.4335
v -0.589231 -0.25 1.3159
v -0.567187 -0.25 1.6785
v -0.55125 -0.25 -0.991562
v -0.541924 -0.25 1.2865
v -0.523945 3.35276e-010 1.4335
v -0.513097 -0.0151764 1.3159
v -0.5 -0.25 2.125
v -0.491199 -0.015625 1.6785
v -0.486968 -0.25 2.005
v -0.480551 -0.0607055 1.2865
v -0.46875 -0.25 2.375
v -0.45375 -0.25 1.9235
v -0.447871 -0.25 1.975
v -0.433013 3.35276e-010 2.125
v -0.424047 -0.0151764 2.005
v -0.416406 -0.25 0.389062
v -0.405949 -0.015625 2.375
v -0.39715 -0.0607055 1.975
v -0.395 -0.25 -1.2525
v -0.392959 -0.0625 1.9235
v -0.375 -0.25 2.625
v -0.335 -0.25 0.6325
v -0.32476 -0.0625 2.625
v -0.3025 0.183013 1.4335
v -0.296237 0.164047 1.3159
v -0.287344 -0.25 0.954688
v -0.283594 0.155949 1.6785
v -0.28 -0.25 1.365
v -0.277446 0.10715 1.2865
v -0.264688 -0.25 2.1685
v -0.25 0.183013 2.125
v -0.24625 -0.25 -1.52469
v -0.244824 0.164047 2.005
v -0.234375 0.155949 2.375
v -0.229294 0.10715 1.975
v -0.229226 -0.140625 2.1685
v -0.226875 0.0747595 1.9235
v -0.21875 -0.25 2.875
v -0.189443 -0.140625 2.875
v -0.1875 0.0747595 2.625
v -0.132344 -0.0605569 2.1685
v -0.109375 -0.0605569 2.875
v 0 -0.25 3.125
v 0 -0.25 2.4135
v 0 -0.25 -1.675
v 0 -0.03125 2.875
v 0 -0.03125 2.1685
v 0 0.125 2.625
v 0 0.125 1.9235
v 0 0.168589 1.975
v 0 0.168589 1.2865
v 0 0.21875 2.375
v 0 0.21875 1.6785
v 0 0.229647 2.005
v 0 0.229647 1.3159
v 0 0.25 2.125
v 0 0.25 1.4335
v 0.109375 -0.0605569 2.875
v 0.132344 -0.0605569 2.1685
v 0.1875 0.0747595 2.625
v 0.189443 -0.140625 2.875
v 0.21875 -0.25 2.875
v 0.226875 0.0747595 1.9235
v 0.229226 -0.140625 2.1685
v 0.229294 0.10715 1.975
v 0.234375 0.155949 2.375
v 0.244824 0.164047 2.005
v 0.24625 -0.25 -1.52469
v 0.25 0.183013 2.125
v 0.264688 -0.25 2.1685
v 0.277446 0.10715 1.2865
v 0.28 -0.25 1.365
v 0.283594 0.155949 1.6785
v 0.287344 -0.25 0.954688
v 0.296237 0.164047 1.3159
v 0.3025 0.183013 1.4335
v 0.32476 -0.0625 2.625
v 0.335 -0.25 0.6325
v 0.375 -0.25 2.625
v 0.392959 -0.0625 1.9235
v 0.395 -0.25 -1.2525
v 0.39715 -0.0607055 1.975
v 0.405949 -0.015625 2.375
v 0.416406 -0.25 0.389062
v 0.424047 -0.0151764 2.005
v 0.433013 3.35276e-010 2.125
v 0.447871 -0.25 1.975
v 0.45375 -0.25 1.9235
v 0.46875 -0.25 2.375
v 0.480551 -0.0607055 1.2865
v 0.486968 -0.25 2.005
v 0.491199 -0.015625 1.6785
v 0.5 -0.25 2.125
v 0.513097 -0.0151764 1.3159
v 0.523945 3.35276e-010 1.4335
v 0.541924 -0.25 1.2865
v 0.55125 -0.25 -0.991562
v 0.567187 -0.25 1.6785
v 0.589231 -0.25 1.3159
v 0.605 -0.25 1.4335
v 0.654219 -0.25 0.100938
v 0.82 -0.25 -0.875
v 0.948281 -0.25 0.0153124
v 1.11582 -0.25 -0.94502
v 1.24021 -0.25 0.0386329
v 1.30594 -0.25 -1.13516
v 1.41309 -0.25 -1.41553
v 1.46 -0.25 -1.75625
v 1.46299 -0.25 -0.0259767
v 1.46406 -0.25 -2.49922
v 1.5 -0.25 -3.125
v 1.581 -0.25 -0.067456
v 1.58372 -0.25 -2.45681
v 1.68775 -0.25 -0.0436327
v 1.7 -0.25 1.375
v 1.7 -0.25 0.075
v 1.70203 -0.25 -1.98206
v 1.72 -0.25 2.475
v 1.72 -0.25 2.375
v 1.75 -0.25 2.475
v 1.75 -0.25 2.375
v 1.75 -0.25 1.375
v 1.8 -0.25 2.475
v 1.8 -0.25 2.375
v 1.8 -0.25 1.375
v 1.83 -0.25 2.475
v 1.83 -0.25 2.375
v 1.83616 -0.25 -1.51257
v 1.85 -0.25 1.375
v 1.85 -0.25 0.075
v 1.85 -0.25 -0.125
v 1.95681 -0.25 -1.07297
v 2.00723 -0.25 -0.266211
v 2.03469 -0.25 -0.687866
vt 0.191713 0.604222
vt 0.195875 0.540335
vt 0.203513 0.662572
vt 0.219697 0.291667
vt 0.219697 0.488636
vt 0.219697 0.518939
vt 0.221794 0.729178
vt 0.222727 0.125
vt 0.222727 0.140152
vt 0.227273 0.125
vt 0.227273 0.140152
vt 0.227273 0.291667
vt 0.234848 0.125
vt 0.234848 0.140152
vt 0.234848 0.291667
vt 0.239394 0.125
vt 0.239394 0.140152
vt 0.242117 0.800311
vt 0.242424 0.291667
vt 0.242424 0.488636
vt 0.24428 0.506611
vt 0.260043 0.872244
vt 0.260454 0.510221
vt 0.272727 0.973485
vt 0.278172 0.87867
vt 0.278335 0.503936
vt 0.278788 0.766098
vt 0.285896 0.714474
vt 0.302131 0.671993
vt 0.312089 0.494147
vt 0.330936 0.643185
vt 0.356321 0.49768
vt 0.375758 0.632576
vt 0.400876 0.484706
vt 0.408333 0.282803
vt 0.410723 0.300621
vt 0.414063 0.245682
vt 0.416477 0.650237
vt 0.41789 0.305076
vt 0.420614 0.282803
vt 0.422258 0.300621
vt 0.424242 0.17803
vt 0.425576 0.245682
vt 0.426217 0.196212
vt 0.427189 0.305076
vt 0.428977 0.140152
vt 0.43125 0.208561
vt 0.432141 0.200758
vt 0.434392 0.17803
vt 0.43575 0.196212
vt 0.436908 0.441051
vt 0.438493 0.140152
vt 0.439826 0.200758
vt 0.440152 0.689773
vt 0.440461 0.208561
vt 0.443182 0.102273
vt 0.449242 0.404167
vt 0.450794 0.102273
vt 0.454167 0.282803
vt 0.455116 0.300621
vt 0.456463 0.35535
vt 0.457031 0.245682
vt 0.457576 0.293182
vt 0.457963 0.305076
vt 0.459896 0.171439
vt 0.462121 0.17803
vt 0.462689 0.731013
vt 0.462906 0.196212
vt 0.464489 0.140152
vt 0.465258 0.200758
vt 0.465269 0.171439
vt 0.465625 0.208561
vt 0.466856 0.0643939
vt 0.471297 0.0643939
vt 0.471591 0.102273
vt 0.479948 0.171439
vt 0.483428 0.0643939
vt 0.5 0.0265151
vt 0.5 0.0643939
vt 0.5 0.102273
vt 0.5 0.134318
vt 0.5 0.140152
vt 0.5 0.171439
vt 0.5 0.17803
vt 0.5 0.196212
vt 0.5 0.200758
vt 0.5 0.208561
vt 0.5 0.245682
vt 0.5 0.282803
vt 0.5 0.300621
vt 0.5 0.305076
vt 0.5 0.753788
vt 0.516572 0.0643939
vt 0.520052 0.171439
vt 0.528409 0.102273
vt 0.528704 0.0643939
vt 0.533144 0.0643939
vt 0.534375 0.208561
vt 0.534731 0.171439
vt 0.534742 0.200758
vt 0.535511 0.140152
vt 0.537094 0.196212
vt 0.537311 0.731013
vt 0.537879 0.17803
vt 0.540104 0.171439
vt 0.542037 0.305076
vt 0.542424 0.293182
vt 0.542969 0.245682
vt 0.543537 0.35535
vt 0.544884 0.300621
vt 0.545833 0.282803
vt 0.549206 0.102273
vt 0.550758 0.404167
vt 0.556818 0.102273
vt 0.559539 0.208561
vt 0.559848 0.689773
vt 0.560174 0.200758
vt 0.561507 0.140152
vt 0.563092 0.441051
vt 0.56425 0.196212
vt 0.565608 0.17803
vt 0.567859 0.200758
vt 0.56875 0.208561
vt 0.571023 0.140152
vt 0.572811 0.305076
vt 0.573783 0.196212
vt 0.574424 0.245682
vt 0.575758 0.17803
vt 0.577742 0.300621
vt 0.579386 0.282803
vt 0.58211 0.305076
vt 0.583523 0.650237
vt 0.585938 0.245682
vt 0.589277 0.300621
vt 0.591667 0.282803
vt 0.599124 0.484706
vt 0.624242 0.632576
vt 0.643679 0.49768
vt 0.669064 0.643185
vt 0.687911 0.494147
vt 0.697869 0.671993
vt 0.714104 0.714474
vt 0.721212 0.766098
vt 0.721665 0.503936
vt 0.721828 0.87867
vt 0.727273 0.973485
vt 0.739546 0.510221
vt 0.739957 0.872244
vt 0.75572 0.506611
vt 0.757576 0.291667
vt 0.757576 0.488636
vt 0.757883 0.800311
vt 0.760606 0.125
vt 0.760606 0.140152
vt 0.765152 0.125
vt 0.765152 0.140152
vt 0.765152 0.291667
vt 0.772727 0.125
vt 0.772727 0.140152
vt 0.772727 0.291667
vt 0.777273 0.125
vt 0.777273 0.140152
vt 0.778206 0.729178
vt 0.780303 0.291667
vt 0.780303 0.488636
vt 0.780303 0.518939
vt 0.796487 0.662572
vt 0.804125 0.540335
vt 0.808287 0.604222
vn -0.97932 -0.202083 0.00973062
vn -0.969427 -0.245254 0.00784832
vn -0.939637 0.251775 0.231715
vn -0.914121 0.296375 0.276666
vn -0.871718 0.233576 0.430756
vn -0.866177 0.499736 -0.00141597
vn -0.840836 0.485457 0.239428
vn -0.827226 0.561869 -0.00117271
vn -0.823594 0.267025 0.500391
vn -0.794352 0.541003 0.276263
vn -0.784788 0.210283 0.582999
vn -0.776406 0.448258 0.44301
vn -0.737422 0.415562 -0.532462
vn -0.717573 0.232651 0.656478
vn -0.715052 0.489067 0.499513
vn -0.695191 0.401369 0.596333
vn -0.682129 0.45528 -0.572206
vn -0.652485 -0.660895 -0.370785
vn -0.630045 -0.656513 -0.41477
vn -0.622523 0.427797 0.655328
vn -0.500119 0.865801 -0.0163986
vn -0.48548 0.262642 -0.833863
vn -0.485457 0.840836 0.239428
vn -0.463817 -0.647692 -0.604457
vn -0.448258 0.776406 0.44301
vn -0.438788 0.898426 -0.01721
vn -0.423923 0.869492 0.253522
vn -0.413151 0.266895 -0.870674
vn -0.408282 0.699 -0.587116
vn -0.403494 -0.644716 -0.649257
vn -0.401369 0.695191 0.596333
vn -0.38697 0.796212 0.465081
vn -0.352392 0.71772 -0.600581
vn -0.341976 0.706236 0.619906
vn -0.239326 0.400938 -0.884291
vn -0.197368 0.397797 -0.895993
vn -2.13516e-009 0.797345 -0.603524
vn 0 0.433834 -0.900993
vn 0 0.440981 -0.897516
vn 0 0.606043 0.795432
vn 0 0.795167 -0.606391
vn 0 0.802737 0.596333
vn 0 0.89302 0.450017
vn 0 0.896517 0.44301
vn 0 0.969816 0.243838
vn 0 0.970914 0.239428
vn 0 0.999752 -0.0222733
vn 0 0.999761 -0.0218557
vn 0 1 -0
vn 3.79502e-009 0.79703 0.60394
vn 5.83276e-009 0.592097 0.805867
vn 0.197368 0.397797 -0.895993
vn 0.239326 0.400938 -0.884291
vn 0.341976 0.706235 0.619906
vn 0.352392 0.71772 -0.600581
vn 0.38697 0.796212 0.465081
vn 0.401369 0.695191 0.596333
vn 0.403494 -0.644716 -0.649257
vn 0.408282 0.699 -0.587116
vn 0.413151 0.266895 -0.870674
vn 0.423923 0.869492 0.253522
vn 0.438788 0.898426 -0.01721
vn 0.448258 0.776406 0.44301
vn 0.463817 -0.647692 -0.604457
vn 0.485457 0.840836 0.239428
vn 0.48548 0.262642 -0.833863
vn 0.500119 0.865801 -0.0163986
vn 0.622523 0.427797 0.655328
vn 0.630045 -0.656513 -0.41477
vn 0.652485 -0.660895 -0.370785
vn 0.682129 0.45528 -0.572206
vn 0.695191 0.401369 0.596333
vn 0.715052 0.489067 0.499513
vn 0.717573 0.232651 0.656478
vn 0.737422 0.415562 -0.532462
vn 0.776406 0.448258 0.44301
vn 0.784788 0.210283 0.582999
vn 0.794352 0.541003 0.276263
vn 0.823594 0.267025 0.500391
vn 0.827226 0.561869 -0.00117271
vn 0.840836 0.485457 0.239428
vn 0.866177 0.499736 -0.00141598
vn 0.871718 0.233576 0.430756
vn 0.914121 0.296375 0.276666
vn 0.939637 0.251775 0.231715
vn 0.969427 -0.245254 0.00784832
vn 0.97932 -0.202083 0.00973062
usemtl Default
s 1
f 94/94/54 82/83/50 79/81/51
f 99/99/68 94/94/54 79/81/51
f 105/105/74 99/99/68 79/81/51
f 79/81/51 71/71/20 65/65/14
f 79/81/51 76/76/34 71/71/20
f 79/81/51 82/83/50 76/76/34
f 98/98/56 84/87/43 82/83/50 94/94/54
f 115/115/73 98/98/56 94/94/54 99/99/68
f 123/123/79 115/115/73 99/99/68 105/105/74
f 71/71/20 55/55/15 47/47/9 65/65/14
f 76/76/34 72/72/32 55/55/15 71/71/20
f 82/83/50 84/87/43 72/72/32 76/76/34
f 108/108/61 88/88/45 84/87/43 98/98/56
f 127/127/78 108/108/61 98/98/56 115/115/73
f 133/133/84 127/127/78 115/115/73 123/123/79
f 55/55/15 43/43/10 37/37/4 47/47/9
f 72/72/32 62/62/27 43/43/10 55/55/15
f 84/87/43 88/88/45 62/62/27 72/72/32
f 111/111/62 92/89/47 88/88/45 108/108/61
f 130/130/80 111/111/62 108/108/61 127/127/78
f 135/135/87 130/130/80 127/127/78 133/133/84
f 43/43/10 40/40/8 35/35/1 37/37/4
f 62/62/27 59/59/26 40/40/8 43/43/10
f 88/88/45 92/89/47 59/59/26 62/62/27
f 36/36/19 134/134/69 135/135/87 35/35/1
f 134/134/69 129/129/71 130/130/80 135/135/87
f 110/110/55 111/111/62 130/130/80 129/129/71
f 90/90/41 92/89/47 111/111/62 110/110/55
f 59/59/26 92/89/47 90/90/41 60/60/33
f 40/40/8 59/59/26 60/60/33 41/41/17
f 40/40/8 41/41/17 36/36/19 35/35/1
f 39/39/30 131/131/58 134/134/69 36/36/19
f 131/131/58 125/125/60 129/129/71 134/134/69
f 106/106/52 110/110/55 129/129/71 125/125/60
f 86/91/38 90/90/41 110/110/55 106/106/52
f 60/60/33 90/90/41 86/91/38 64/64/36
f 41/41/17 60/60/33 64/64/36 45/45/28
f 41/41/17 45/45/28 39/39/30 36/36/19
f 93/93/57 81/79/42 78/78/40
f 96/96/72 93/93/57 78/78/40
f 97/97/77 96/96/72 78/78/40
f 78/78/40 74/74/16 73/73/11
f 78/78/40 77/77/31 74/74/16
f 78/78/40 81/79/42 77/77/31
f 95/95/63 83/80/44 81/79/42 93/93/57
f 112/112/76 95/95/63 93/93/57 96/96/72
f 114/114/83 112/112/76 96/96/72 97/97/77
f 74/74/16 58/58/12 56/56/5 73/73/11
f 77/77/31 75/75/25 58/58/12 74/74/16
f 81/79/42 83/80/44 75/75/25 77/77/31
f 101/101/65 87/82/46 83/80/44 95/95/63
f 118/118/81 101/101/65 95/95/63 112/112/76
f 124/124/85 118/118/81 112/112/76 114/114/83
f 58/58/12 52/52/7 46/46/3 56/56/5
f 75/75/25 69/69/23 52/52/7 58/58/12
f 83/80/44 87/82/46 69/69/23 75/75/25
f 104/104/67 91/84/48 87/82/46 101/101/65
f 121/121/82 104/104/67 101/101/65 118/118/81
f 128/128/86 121/121/82 118/118/81 124/124/85
f 52/52/7 49/49/6 42/42/2 46/46/3
f 69/69/23 66/66/21 49/49/6 52/52/7
f 87/82/46 91/84/48 66/66/21 69/69/23
f 44/44/18 126/126/70 128/128/86 42/42/2
f 126/126/70 120/120/75 121/121/82 128/128/86
f 102/102/59 104/104/67 121/121/82 120/120/75
f 89/85/37 91/84/48 104/104/67 102/102/59
f 66/66/21 91/84/48 89/85/37 68/68/29
f 49/49/6 66/66/21 68/68/29 50/50/13
f 49/49/6 50/50/13 44/44/18 42/42/2
f 48/48/24 122/122/64 126/126/70 44/44/18
f 122/122/64 117/117/66 120/120/75 126/126/70
f 100/100/53 102/102/59 120/120/75 117/117/66
f 85/86/39 89/85/37 102/102/59 100/100/53
f 68/68/29 89/85/37 85/86/39 70/70/35
f 50/50/13 68/68/29 70/70/35 53/53/22
f 50/50/13 53/53/22 48/48/24 44/44/18
f 5/5/49 4/4/49 12/12/49 15/15/49 19/19/49 20/20/49
f 14/14/49 11/11/49 10/10/49 13/13/49
f 12/12/49 11/11/49 14/14/49 15/15/49
f 11/11/49 9/9/49 8/8/49 10/10/49
f 17/17/49 14/14/49 13/13/49 16/16/49
f 22/22/49 25/25/49 24/24/49
f 18/18/49 27/27/49 25/25/49 22/22/49
f 7/7/49 28/28/49 27/27/49 18/18/49
f 3/3/49 29/29/49 28/28/49 7/7/49
f 1/1/49 31/31/49 29/29/49 3/3/49
f 6/6/49 5/5/49 20/20/49 21/21/49
f 21/21/49 23/23/49 6/6/49
f 1/1/49 2/2/49 6/6/49
f 23/23/49 1/1/49 6/6/49
f 23/23/49 31/31/49 1/1/49
f 38/38/49 32/32/49 34/34/49
f 33/33/49 31/31/49 23/23/49
f 38/38/49 33/33/49 32/32/49
f 33/33/49 30/30/49 32/32/49
f 33/33/49 26/26/49 30/30/49
f 33/33/49 23/23/49 26/26/49
f 150/150/49 157/157/49 160/160/49 164/164/49 165/165/49 151/151/49
f 158/158/49 159/159/49 156/156/49 155/155/49
f 156/156/49 159/159/49 160/160/49 157/157/49
f 161/161/49 162/162/49 159/159/49 158/158/49
f 155/155/49 156/156/49 154/154/49 153/153/49
f 145/145/49 148/148/49 146/146/49
f 145/145/49 143/143/49 152/152/49 148/148/49
f 143/143/49 142/142/49 163/163/49 152/152/49
f 142/142/49 141/141/49 167/167/49 163/163/49
f 141/141/49 139/139/49 169/169/49 167/167/49
f 151/151/49 165/165/49 166/166/49 149/149/49
f 147/147/49 149/149/49 166/166/49
f 168/168/49 169/169/49 166/166/49
f 169/169/49 147/147/49 166/166/49
f 139/139/49 147/147/49 169/169/49
f 138/138/49 132/132/49 136/136/49
f 139/139/49 137/137/49 147/147/49
f 137/137/49 132/132/49 138/138/49
f 140/140/49 137/137/49 138/138/49
f 144/144/49 137/137/49 140/140/49
f 147/147/49 137/137/49 144/144/49
f 109/109/49 61/61/49 63/63/49 107/107/49
f 113/113/49 57/57/49 61/61/49 109/109/49
f 119/119/49 51/51/49 57/57/49 113/113/49
f 136/136/49 34/34/49 51/51/49 119/119/49
f 132/132/49 38/38/49 34/34/49 136/136/49
f 116/116/49 54/54/49 38/38/49 132/132/49
f 103/103/49 67/67/49 54/54/49 116/116/49
f 80/92/49 67/67/49 103/103/49
