####
#
#	OBJ File Generated by LightWave3D
#	LightWave3D OBJ Export v2.3
#
####
o cock_ship.obj
mtllib cock_ship.mtl
g default
v -0.4 -0.05 0.313732
v -0.4 -0.05 0.213732
v -0.4 0.05 0.313732
v -0.4 0.05 0.213732
v -0.3 -0.05 0.413732
v -0.3 -0.05 0.313732
v -0.3 -0.05 0.213732
v -0.3 -0.05 0.113732
v -0.3 0.05 0.413732
v -0.3 0.05 0.313732
v -0.3 0.05 0.213732
v -0.3 0.05 0.113732
v -0.265267 -0.05 -0.193325
v -0.265267 0.05 -0.193325
v -0.236949 -0.05 -0.119554
v -0.236949 0.05 -0.119554
v -0.214539 -0.05 -0.313732
v -0.214539 0.05 -0.313732
v -0.2 -0.05 0.413732
v -0.2 -0.05 0.313732
v -0.2 -0.05 0.213732
v -0.2 -0.05 0.113732
v -0.2 0.05 0.413732
v -0.2 0.05 0.313732
v -0.2 0.05 0.213732
v -0.2 0.05 0.113732
v -0.173913 -0.05 -0.233999
v -0.173913 0.05 -0.233999
v -0.141843 -0.05 -0.150455
v -0.141843 0.05 -0.150455
v -0.127936 -0.05 -0.363732
v -0.127936 0.05 -0.363732
v -0.118682 -0.05 -0.0640175
v -0.118682 0.05 -0.0640175
v -0.104683 -0.05 0.0243679
v -0.104683 0.05 0.0243679
v -0.1 -0.05 0.413732
v -0.1 -0.05 0.313732
v -0.1 -0.05 0.213732
v -0.1 -0.05 0.113732
v -0.1 0.05 0.413732
v -0.1 0.05 0.313732
v -0.1 0.05 0.213732
v -0.1 0.05 0.113732
v -0.082558 -0.05 -0.274672
v -0.082558 0.05 -0.274672
v -0.0467376 -0.05 -0.181357
v -0.0467376 0.05 -0.181357
v -0.0413338 -0.05 -0.413732
v -0.0413338 0.05 -0.413732
v -0.0208675 -0.05 -0.0848086
v -0.0208675 0.05 -0.0848086
v -0.0052312 -0.05 0.0139151
v -0.0052312 0.05 0.0139151
v 0 -0.05 0.313732
v 0 -0.05 0.213732
v 0 -0.05 0.113732
v 0 0.05 0.313732
v 0 0.05 0.213732
v 0 0.05 0.113732
v 0.00879654 -0.05 -0.315346
v 0.00879654 0.05 -0.315346
v 0.0483681 -0.05 -0.212259
v 0.0483681 0.05 -0.212259
v 0.0769473 -0.05 -0.1056
v 0.0769473 0.05 -0.1056
v 0.094221 -0.05 0.00346224
v 0.094221 0.05 0.00346224
v 0.1 -0.05 0.413732
v 0.1 -0.05 0.313732
v 0.1 -0.05 0.213732
v 0.1 -0.05 0.113732
v 0.1 0.05 0.413732
v 0.1 0.05 0.313732
v 0.1 0.05 0.213732
v 0.1 0.05 0.113732
v 0.100151 -0.05 -0.35602
v 0.100151 0.05 -0.35602
v 0.143474 -0.05 -0.24316
v 0.143474 0.05 -0.24316
v 0.2 -0.05 0.413732
v 0.2 -0.05 0.313732
v 0.2 -0.05 0.213732
v 0.2 -0.05 0.113732
v 0.2 0.05 0.413732
v 0.2 0.05 0.313732
v 0.2 0.05 0.213732
v 0.2 0.05 0.113732
v 0.3 -0.05 0.413732
v 0.3 -0.05 0.313732
v 0.3 -0.05 0.213732
v 0.3 -0.05 0.113732
v 0.3 0.05 0.413732
v 0.3 0.05 0.313732
v 0.3 0.05 0.213732
v 0.3 0.05 0.113732
v 0.4 -0.05 0.313732
v 0.4 -0.05 0.213732
v 0.4 0.05 0.313732
v 0.4 0.05 0.213732
vt 0.0348837 0.135195
vt 0.0348837 0.251474
vt 0.151163 0.0189158
vt 0.151163 0.135195
vt 0.151163 0.251474
vt 0.151163 0.367753
vt 0.19155 0.724797
vt 0.224478 0.639016
vt 0.250536 0.864805
vt 0.267442 0.0189158
vt 0.267442 0.135195
vt 0.267442 0.251474
vt 0.267442 0.367753
vt 0.297776 0.772092
vt 0.335066 0.674948
vt 0.351237 0.922945
vt 0.361997 0.574439
vt 0.378275 0.471665
vt 0.383721 0.0189158
vt 0.383721 0.135195
vt 0.383721 0.251474
vt 0.383721 0.367753
vt 0.404002 0.819387
vt 0.445654 0.71088
vt 0.451937 0.981084
vt 0.475735 0.598615
vt 0.493917 0.48382
vt 0.5 0.135195
vt 0.5 0.251474
vt 0.5 0.367753
vt 0.510229 0.866682
vt 0.556242 0.746813
vt 0.589474 0.62279
vt 0.609559 0.495974
vt 0.616279 0.0189158
vt 0.616279 0.135195
vt 0.616279 0.251474
vt 0.616279 0.367753
vt 0.616455 0.913976
vt 0.66683 0.782745
vt 0.732558 0.0189158
vt 0.732558 0.135195
vt 0.732558 0.251474
vt 0.732558 0.367753
vt 0.848837 0.0189158
vt 0.848837 0.135195
vt 0.848837 0.251474
vt 0.848837 0.367753
vt 0.965116 0.135195
vt 0.965116 0.251474
vn -0.915789 -0.401307 0.0168368
vn -0.828574 -0.555168 0.072479
vn -0.825537 0.555168 0.101375
vn -0.758875 0.401307 -0.512895
vn -0.749301 -0.659046 -0.0648533
vn -0.666667 -0.333333 -0.666667
vn -0.666667 0.333333 0.666667
vn -0.666667 0.666667 0.333333
vn -0.588518 -0.800351 0.114388
vn -0.584164 0.800351 0.134874
vn -0.57735 -0.57735 0.57735
vn -0.57735 0.57735 -0.57735
vn -0.575694 0.659046 -0.483978
vn -0.480023 0.877255 -0.00122045
vn -0.436436 -0.872872 0.218218
vn -0.407016 0.32584 0.853327
vn -0.373816 -0.877255 -0.30114
vn -0.354461 -0.567534 0.743143
vn -0.349905 0.875963 -0.332047
vn -0.348155 -0.870388 0.348155
vn -0.348155 0.870388 -0.348155
vn -0.333333 -0.666667 0.666667
vn -0.3 0.8 -0.519615
vn -0.3 -0.8 -0.519615
vn -0.230171 -0.875963 0.423922
vn -0.218218 0.872872 0.436436
vn -0.19256 -0.964121 -0.182733
vn -0.19245 -0.96225 -0.19245
vn -0.19245 0.96225 0.19245
vn -0.126668 0.964121 0.233293
vn 0 -1 -0
vn 0 -0.707107 0.707107
vn 0 -0.707107 -0.707107
vn 0 -0.707107 0.707107
vn 0 0.447214 0.894427
vn 0 0.707107 0.707107
vn 0 0.707107 -0.707107
vn 0 1 -0
vn 0.078451 -0.971991 -0.221539
vn 0.145323 0.900261 -0.41038
vn 0.191815 -0.960391 -0.202131
vn 0.19245 -0.96225 -0.19245
vn 0.19245 0.96225 0.19245
vn 0.218218 0.872872 0.436436
vn 0.229792 0.587694 -0.775765
vn 0.266954 -0.341368 -0.901223
vn 0.309623 0.587694 -0.747496
vn 0.333333 -0.666667 0.666667
vn 0.343938 0.868553 0.356822
vn 0.345493 0.864919 -0.364074
vn 0.348155 -0.870388 0.348155
vn 0.348155 0.870388 -0.348155
vn 0.359696 -0.341368 -0.868382
vn 0.436436 -0.872872 0.218218
vn 0.486578 -0.868553 0.0941117
vn 0.523327 -0.674558 0.520673
vn 0.57735 -0.57735 0.57735
vn 0.57735 0.57735 -0.57735
vn 0.666667 -0.333333 -0.666667
vn 0.666667 0.333333 0.666667
vn 0.666667 0.666667 0.333333
vn 0.701407 0.707538 -0.0861321
vn 0.703987 -0.707538 -0.0615809
vn 0.733979 0.674558 0.0790314
vn 0.810418 0.555168 -0.187112
vn 0.816459 -0.555168 -0.158692
usemtl Default
s off
f 38/20/51 41/19/60 37/19/57
f 42/20/43 41/19/60 38/20/51
f 41/19/60 19/10/32 37/19/57
f 41/19/60 23/10/36 19/10/32
f 58/28/35 38/20/51 55/28/34
f 58/28/35 42/20/43 38/20/51
f 23/10/36 5/3/22 19/10/32
f 23/10/36 9/3/8 5/3/22
f 9/3/8 6/4/15 5/3/22
f 9/3/8 10/4/26 6/4/15
f 10/4/26 1/1/22 6/4/15
f 10/4/26 3/1/8 1/1/22
f 3/1/8 2/2/6 1/1/22
f 3/1/8 4/2/12 2/2/6
f 2/2/6 11/5/21 7/5/28
f 4/2/12 11/5/21 2/2/6
f 11/5/21 8/6/6 7/5/28
f 11/5/21 12/6/12 8/6/6
f 8/6/6 26/13/37 22/13/33
f 12/6/12 26/13/37 8/6/6
f 22/13/33 44/22/19 40/22/27
f 26/13/37 44/22/19 22/13/33
f 44/22/19 35/18/2 40/22/27
f 44/22/19 36/18/3 35/18/2
f 36/18/3 33/17/9 35/18/2
f 36/18/3 34/17/10 33/17/9
f 34/17/10 29/15/25 33/17/9
f 34/17/10 30/15/30 29/15/25
f 29/15/25 16/8/16 15/8/18
f 30/15/30 16/8/16 29/15/25
f 16/8/16 13/7/5 15/8/18
f 16/8/16 14/7/13 13/7/5
f 14/7/13 27/14/17 13/7/5
f 14/7/13 28/14/14 27/14/17
f 28/14/14 17/9/1 27/14/17
f 28/14/14 18/9/4 17/9/1
f 18/9/4 31/16/24 17/9/1
f 18/9/4 32/16/23 31/16/24
f 65/33/66 68/34/62 67/34/63
f 66/33/65 68/34/62 65/33/66
f 63/32/55 66/33/65 65/33/66
f 64/32/49 66/33/65 63/32/55
f 32/16/23 49/25/46 31/16/24
f 32/16/23 50/25/45 49/25/46
f 49/25/46 62/31/40 61/31/39
f 50/25/45 62/31/40 49/25/46
f 79/40/56 64/32/49 63/32/55
f 80/40/64 64/32/49 79/40/56
f 62/31/40 77/39/53 61/31/39
f 62/31/40 78/39/47 77/39/53
f 77/39/53 80/40/64 79/40/56
f 78/39/47 80/40/64 77/39/53
f 70/36/20 58/28/35 55/28/34
f 74/36/29 58/28/35 70/36/20
f 81/41/32 73/35/7 69/35/11
f 85/41/36 73/35/7 81/41/32
f 73/35/7 70/36/20 69/35/11
f 73/35/7 74/36/29 70/36/20
f 67/34/63 76/38/50 72/38/41
f 68/34/62 76/38/50 67/34/63
f 76/38/50 84/44/33 72/38/41
f 76/38/50 88/44/37 84/44/33
f 88/44/37 92/48/59 84/44/33
f 88/44/37 96/48/58 92/48/59
f 92/48/59 95/47/52 91/47/42
f 96/48/58 95/47/52 92/48/59
f 89/45/48 85/41/36 81/41/32
f 93/45/61 85/41/36 89/45/48
f 90/46/54 93/45/61 89/45/48
f 94/46/44 93/45/61 90/46/54
f 97/49/48 94/46/44 90/46/54
f 99/49/61 94/46/44 97/49/48
f 95/47/52 98/50/59 91/47/42
f 95/47/52 100/50/58 98/50/59
f 98/50/59 99/49/61 97/49/48
f 100/50/58 99/49/61 98/50/59
f 42/20/43 23/10/36 41/19/60
f 42/20/43 24/11/38 23/10/36
f 19/10/32 38/20/51 37/19/57
f 20/11/31 38/20/51 19/10/32
f 43/21/38 24/11/38 42/20/43
f 43/21/38 25/12/38 24/11/38
f 20/11/31 39/21/31 38/20/51
f 21/12/31 39/21/31 20/11/31
f 59/29/38 42/20/43 58/28/35
f 59/29/38 43/21/38 42/20/43
f 38/20/51 56/29/31 55/28/34
f 39/21/31 56/29/31 38/20/51
f 24/11/38 9/3/8 23/10/36
f 24/11/38 10/4/26 9/3/8
f 5/3/22 20/11/31 19/10/32
f 6/4/15 20/11/31 5/3/22
f 11/5/21 3/1/8 10/4/26
f 11/5/21 4/2/12 3/1/8
f 1/1/22 7/5/28 6/4/15
f 2/2/6 7/5/28 1/1/22
f 25/12/38 10/4/26 24/11/38
f 25/12/38 11/5/21 10/4/26
f 6/4/15 21/12/31 20/11/31
f 7/5/28 21/12/31 6/4/15
f 26/13/37 11/5/21 25/12/38
f 26/13/37 12/6/12 11/5/21
f 7/5/28 22/13/33 21/12/31
f 8/6/6 22/13/33 7/5/28
f 60/30/38 43/21/38 59/29/38
f 60/30/38 44/22/19 43/21/38
f 39/21/31 57/30/31 56/29/31
f 40/22/27 57/30/31 39/21/31
f 44/22/19 25/12/38 43/21/38
f 44/22/19 26/13/37 25/12/38
f 21/12/31 40/22/27 39/21/31
f 22/13/33 40/22/27 21/12/31
f 54/27/38 44/22/19 60/30/38
f 54/27/38 36/18/3 44/22/19
f 40/22/27 53/27/31 57/30/31
f 35/18/2 53/27/31 40/22/27
f 54/27/38 34/17/10 36/18/3
f 52/26/38 34/17/10 54/27/38
f 33/17/9 51/26/31 53/27/31
f 33/17/9 53/27/31 35/18/2
f 52/26/38 48/24/38 34/17/10
f 48/24/38 30/15/30 34/17/10
f 47/24/31 51/26/31 33/17/9
f 29/15/25 47/24/31 33/17/9
f 48/24/38 46/23/38 30/15/30
f 46/23/38 28/14/14 30/15/30
f 45/23/31 47/24/31 29/15/25
f 27/14/17 45/23/31 29/15/25
f 30/15/30 14/7/13 16/8/16
f 28/14/14 14/7/13 30/15/30
f 13/7/5 27/14/17 29/15/25
f 13/7/5 29/15/25 15/8/18
f 46/23/38 32/16/23 28/14/14
f 32/16/23 18/9/4 28/14/14
f 31/16/24 45/23/31 27/14/17
f 17/9/1 31/16/24 27/14/17
f 68/34/62 52/26/38 54/27/38
f 66/33/65 52/26/38 68/34/62
f 51/26/31 67/34/63 53/27/31
f 51/26/31 65/33/66 67/34/63
f 64/32/49 48/24/38 52/26/38
f 66/33/65 64/32/49 52/26/38
f 63/32/55 65/33/66 51/26/31
f 47/24/31 63/32/55 51/26/31
f 62/31/40 46/23/38 48/24/38
f 64/32/49 62/31/40 48/24/38
f 61/31/39 63/32/55 47/24/31
f 45/23/31 61/31/39 47/24/31
f 62/31/40 32/16/23 46/23/38
f 50/25/45 32/16/23 62/31/40
f 31/16/24 61/31/39 45/23/31
f 31/16/24 49/25/46 61/31/39
f 80/40/64 62/31/40 64/32/49
f 78/39/47 62/31/40 80/40/64
f 61/31/39 79/40/56 63/32/55
f 61/31/39 77/39/53 79/40/56
f 74/36/29 59/29/38 58/28/35
f 75/37/38 59/29/38 74/36/29
f 56/29/31 70/36/20 55/28/34
f 56/29/31 71/37/31 70/36/20
f 86/42/38 75/37/38 74/36/29
f 87/43/38 75/37/38 86/42/38
f 71/37/31 82/42/31 70/36/20
f 71/37/31 83/43/31 82/42/31
f 85/41/36 74/36/29 73/35/7
f 86/42/38 74/36/29 85/41/36
f 70/36/20 81/41/32 69/35/11
f 70/36/20 82/42/31 81/41/32
f 75/37/38 60/30/38 59/29/38
f 76/38/50 60/30/38 75/37/38
f 57/30/31 71/37/31 56/29/31
f 57/30/31 72/38/41 71/37/31
f 76/38/50 54/27/38 60/30/38
f 68/34/62 54/27/38 76/38/50
f 53/27/31 72/38/41 57/30/31
f 53/27/31 67/34/63 72/38/41
f 87/43/38 76/38/50 75/37/38
f 88/44/37 76/38/50 87/43/38
f 72/38/41 83/43/31 71/37/31
f 72/38/41 84/44/33 83/43/31
f 95/47/52 88/44/37 87/43/38
f 96/48/58 88/44/37 95/47/52
f 84/44/33 91/47/42 83/43/31
f 84/44/33 92/48/59 91/47/42
f 93/45/61 86/42/38 85/41/36
f 94/46/44 86/42/38 93/45/61
f 82/42/31 89/45/48 81/41/32
f 82/42/31 90/46/54 89/45/48
f 94/46/44 87/43/38 86/42/38
f 95/47/52 87/43/38 94/46/44
f 83/43/31 90/46/54 82/42/31
f 83/43/31 91/47/42 90/46/54
f 99/49/61 95/47/52 94/46/44
f 100/50/58 95/47/52 99/49/61
f 91/47/42 97/49/48 90/46/54
f 91/47/42 98/50/59 97/49/48
