####
#
#	OBJ File Generated by LightWave3D
#	LightWave3D OBJ Export v2.3
#
####
o machinegun.obj
mtllib machinegun.mtl
g default
v -0.075 0 0.15
v -0.075 0 0.065
v -0.06 0 0.05
v 0.025 0 0.15
v 0.025 0 0.05
v 0.025 0 -0.1
v 0.025 0 -0.14
v 0.0349 0 0.04
v 0.0349 0 -0.09
v 0.0349 0 -0.15
v 0.0684 0 0.04
v 0.0684 0 -0.09
v 0.0684 0 -0.15
v 0.075 0 0.15
v 0.075 0 0.05
v 0.075 0 -0.1
v 0.075 0 -0.14
vt 0.241935 0.016129
vt 0.241935 0.290323
vt 0.290323 0.33871
vt 0.564516 0.016129
vt 0.564516 0.33871
vt 0.564516 0.822581
vt 0.564516 0.951613
vt 0.596452 0.370968
vt 0.596452 0.790323
vt 0.596452 0.983871
vt 0.704516 0.370968
vt 0.704516 0.790323
vt 0.704516 0.983871
vt 0.725806 0.016129
vt 0.725806 0.33871
vt 0.725806 0.822581
vt 0.725806 0.951613
vn 0 1 -0
usemtl Default
s off
f 14/14/1 15/15/1 5/5/1 4/4/1
f 10/10/1 7/7/1 17/17/1 13/13/1
f 7/7/1 6/6/1 16/16/1 17/17/1
f 6/6/1 9/9/1 12/12/1 16/16/1
f 9/9/1 8/8/1 11/11/1 12/12/1
f 15/15/1 11/11/1 8/8/1 5/5/1
f 5/5/1 3/3/1 2/2/1 1/1/1 4/4/1
