####
#
#	OBJ File Generated by LightWave3D
#	LightWave3D OBJ Export v2.3
#
####
o rocket_launcher.obj
mtllib rocket_launcher.mtl
g default
v -0.0703528 0 0.22
v -0.0703528 0 0.13
v -0.0703528 0 -0.2
v -0.0703528 0 -0.22
v -0.0609273 -0.0351764 0.22
v -0.0609273 -0.0351764 0.13
v -0.0609273 -0.0351764 -0.2
v -0.0609273 -0.0351764 -0.22
v -0.0609273 0.0351764 0.22
v -0.0609273 0.0351764 0.13
v -0.0609273 0.0351764 -0.2
v -0.0609273 0.0351764 -0.22
v -0.06 0 0.13
v -0.06 0 -0.2
v -0.0519615 -0.03 0.13
v -0.0519615 -0.03 -0.2
v -0.0519615 0.03 0.13
v -0.0519615 0.03 -0.2
v -0.0351764 -0.0609273 0.22
v -0.0351764 -0.0609273 0.13
v -0.0351764 -0.0609273 -0.2
v -0.0351764 -0.0609273 -0.22
v -0.0351764 0.0609273 0.22
v -0.0351764 0.0609273 0.13
v -0.0351764 0.0609273 -0.2
v -0.0351764 0.0609273 -0.22
v -0.03 -0.0519615 0.13
v -0.03 -0.0519615 -0.2
v -0.03 0.0519615 0.13
v -0.03 0.0519615 -0.2
v 0 -0.0703528 0.22
v 0 -0.0703528 0.13
v 0 -0.0703528 -0.2
v 0 -0.0703528 -0.22
v 0 -0.06 0.13
v 0 -0.06 -0.2
v 0 0.06 0.13
v 0 0.06 -0.2
v 0 0.0703528 0.22
v 0 0.0703528 0.13
v 0 0.0703528 -0.2
v 0 0.0703528 -0.22
v 0.03 -0.0519615 0.13
v 0.03 -0.0519615 -0.2
v 0.03 0.0519615 0.13
v 0.03 0.0519615 -0.2
v 0.0351764 -0.0609273 0.22
v 0.0351764 -0.0609273 0.13
v 0.0351764 -0.0609273 -0.2
v 0.0351764 -0.0609273 -0.22
v 0.0351764 0.0609273 0.22
v 0.0351764 0.0609273 0.13
v 0.0351764 0.0609273 -0.2
v 0.0351764 0.0609273 -0.22
v 0.0519615 -0.03 0.13
v 0.0519615 -0.03 -0.2
v 0.0519615 0.03 0.13
v 0.0519615 0.03 -0.2
v 0.06 0 0.13
v 0.06 0 -0.2
v 0.0609273 -0.0351764 0.22
v 0.0609273 -0.0351764 0.13
v 0.0609273 -0.0351764 -0.2
v 0.0609273 -0.0351764 -0.22
v 0.0609273 0.0351764 0.22
v 0.0609273 0.0351764 0.13
v 0.0609273 0.0351764 -0.2
v 0.0609273 0.0351764 -0.22
v 0.0703528 0 0.22
v 0.0703528 0 0.13
v 0.0703528 0 -0.2
v 0.0703528 0 -0.22
vt 0.347059 0.0217391
vt 0.347059 0.217391
vt 0.347059 0.934783
vt 0.347059 0.978261
vt 0.367549 0.0217391
vt 0.367549 0.217391
vt 0.367549 0.934783
vt 0.367549 0.978261
vt 0.369565 0.217391
vt 0.369565 0.934783
vt 0.38704 0.217391
vt 0.38704 0.934783
vt 0.42353 0.0217391
vt 0.42353 0.217391
vt 0.42353 0.934783
vt 0.42353 0.978261
vt 0.434783 0.217391
vt 0.434783 0.934783
vt 0.5 0.0217391
vt 0.5 0.217391
vt 0.5 0.934783
vt 0.5 0.978261
vt 0.565217 0.217391
vt 0.565217 0.934783
vt 0.57647 0.0217391
vt 0.57647 0.217391
vt 0.57647 0.934783
vt 0.57647 0.978261
vt 0.61296 0.217391
vt 0.61296 0.934783
vt 0.630435 0.217391
vt 0.630435 0.934783
vt 0.632451 0.0217391
vt 0.632451 0.217391
vt 0.632451 0.934783
vt 0.632451 0.978261
vt 0.652941 0.0217391
vt 0.652941 0.217391
vt 0.652941 0.934783
vt 0.652941 0.978261
vn -0.941945 -0.0841311 0.325058
vn -0.820795 -0.0733104 -0.566499
vn -0.820795 0.0733104 0.566499
vn -0.820795 0.0733105 -0.566499
vn -0.747484 -0.346909 -0.566499
vn -0.747484 0.346909 0.566499
vn -0.674174 0.473886 -0.566499
vn -0.63148 -0.293071 0.717874
vn -0.63148 0.293071 -0.717874
vn -0.63148 0.293071 0.717874
vn -0.63148 -0.293071 -0.717874
vn -0.585869 -0.0523277 0.808715
vn -0.585869 0.0523277 -0.808715
vn -0.569547 -0.400342 0.717874
vn -0.569547 -0.400342 -0.717874
vn -0.569547 0.400342 0.717874
vn -0.569547 0.400342 -0.717874
vn -0.473886 -0.674174 -0.566499
vn -0.473886 0.674174 0.566499
vn -0.346909 -0.747484 0.566499
vn -0.346909 -0.747484 0.566499
vn -0.346909 0.747484 -0.566499
vn -0.346909 0.747484 -0.566499
vn -0.338252 -0.481213 0.808715
vn -0.338252 0.481213 -0.808715
vn -0.247617 -0.533541 -0.808715
vn -0.247617 0.533541 0.808715
vn -0.176881 0.251639 0.95152
vn 0 -0.888074 0.459701
vn 0 -0.888074 -0.459701
vn 0 -0.694747 0.719255
vn 0 -0.694747 -0.719255
vn 0 -0.694747 -0.719255
vn 0 -0.434898 0.90048
vn 0 0.434898 -0.90048
vn 0 0.694747 0.719255
vn 0 0.888074 -0.459701
vn 0 0.9681 0.250563
vn 0.129486 0.279003 -0.95152
vn 0.247617 -0.533541 -0.808715
vn 0.247617 0.533541 0.808715
vn 0.338252 -0.481213 0.808715
vn 0.338252 0.481213 -0.808715
vn 0.346909 -0.747484 0.566499
vn 0.346909 -0.747484 0.566499
vn 0.346909 0.747484 -0.566499
vn 0.473886 -0.674174 -0.566499
vn 0.473886 0.674174 0.566499
vn 0.569547 -0.400342 0.717874
vn 0.569547 -0.400342 -0.717874
vn 0.569547 0.400342 0.717874
vn 0.569547 0.400342 -0.717874
vn 0.585869 -0.0523277 0.808715
vn 0.585869 0.0523277 -0.808715
vn 0.63148 -0.293071 -0.717874
vn 0.63148 -0.293071 -0.717874
vn 0.63148 -0.293071 0.717874
vn 0.63148 0.293071 -0.717874
vn 0.63148 0.293071 0.717874
vn 0.674174 -0.473886 0.566499
vn 0.674174 0.473886 -0.566499
vn 0.747484 0.346909 0.566499
vn 0.820795 -0.0733104 -0.566499
vn 0.820795 0.0733104 0.566499
vn 0.820795 -0.0733105 0.566499
vn 0.941945 0.0841311 -0.325058
usemtl Default
s off
f 51/25/48 39/19/38 23/13/28
f 51/25/48 23/13/28 65/33/62
f 65/33/62 23/13/28 69/37/65
f 69/37/65 23/13/28 61/33/60
f 61/33/60 23/13/28 47/25/45
f 47/25/45 23/13/28 31/19/31
f 23/13/28 19/13/21 31/19/31
f 23/13/28 5/5/14 19/13/21
f 9/5/6 1/1/1 5/5/14
f 23/13/28 9/5/6 5/5/14
f 46/24/41 37/20/37 45/23/43
f 38/21/36 37/20/37 46/24/41
f 58/30/51 45/23/43 57/29/58
f 46/24/41 45/23/43 58/30/51
f 60/32/64 57/29/58 59/31/63
f 58/30/51 57/29/58 60/32/64
f 56/30/57 59/31/63 55/29/50
f 60/32/64 59/31/63 56/30/57
f 44/24/42 55/29/50 43/23/40
f 56/30/57 55/29/50 44/24/42
f 36/21/29 43/23/40 35/20/33
f 44/24/42 43/23/40 36/21/29
f 27/17/26 36/21/29 35/20/33
f 27/17/26 28/18/24 36/21/29
f 15/11/15 28/18/24 27/17/26
f 15/11/15 16/12/8 28/18/24
f 13/9/2 16/12/8 15/11/15
f 13/9/2 14/10/3 16/12/8
f 17/11/9 14/10/3 13/9/2
f 17/11/9 18/12/16 14/10/3
f 29/17/25 18/12/16 17/11/9
f 29/17/25 30/18/27 18/12/16
f 37/20/37 30/18/27 29/17/25
f 37/20/37 38/21/36 30/18/27
f 26/16/23 42/22/37 54/28/39
f 26/16/23 54/28/39 12/8/7
f 12/8/7 54/28/39 4/4/4
f 4/4/4 54/28/39 8/8/5
f 8/8/5 54/28/39 22/16/18
f 22/16/18 54/28/39 34/22/30
f 54/28/39 50/28/47 34/22/30
f 54/28/39 64/36/56 50/28/47
f 68/36/61 72/40/66 64/36/56
f 54/28/39 68/36/61 64/36/56
f 40/20/35 37/20/37 29/17/25
f 24/14/22 40/20/35 29/17/25
f 40/20/35 52/26/46 45/23/43
f 37/20/37 40/20/35 45/23/43
f 45/23/43 66/34/52 57/29/58
f 45/23/43 52/26/46 66/34/52
f 57/29/58 70/38/54 59/31/63
f 57/29/58 66/34/52 70/38/54
f 55/29/50 70/38/54 62/34/55
f 59/31/63 70/38/54 55/29/50
f 43/23/40 62/34/55 48/26/47
f 55/29/50 62/34/55 43/23/40
f 43/23/40 48/26/47 32/20/32
f 35/20/33 43/23/40 32/20/32
f 27/17/26 35/20/33 32/20/32
f 20/14/18 27/17/26 32/20/32
f 6/6/11 27/17/26 20/14/18
f 6/6/11 15/11/15 27/17/26
f 2/2/13 15/11/15 6/6/11
f 2/2/13 13/9/2 15/11/15
f 2/2/13 17/11/9 13/9/2
f 10/6/17 17/11/9 2/2/13
f 10/6/17 29/17/25 17/11/9
f 24/14/22 29/17/25 10/6/17
f 39/19/38 24/14/22 23/13/28
f 39/19/38 40/20/35 24/14/22
f 52/26/46 39/19/38 51/25/48
f 40/20/35 39/19/38 52/26/46
f 66/34/52 51/25/48 65/33/62
f 52/26/46 51/25/48 66/34/52
f 70/38/54 65/33/62 69/37/65
f 66/34/52 65/33/62 70/38/54
f 62/34/55 69/37/65 61/33/60
f 70/38/54 69/37/65 62/34/55
f 48/26/47 61/33/60 47/25/45
f 62/34/55 61/33/60 48/26/47
f 32/20/32 47/25/45 31/19/31
f 48/26/47 47/25/45 32/20/32
f 19/13/21 32/20/32 31/19/31
f 19/13/21 20/14/18 32/20/32
f 5/5/14 20/14/18 19/13/21
f 5/5/14 6/6/11 20/14/18
f 1/1/1 6/6/11 5/5/14
f 1/1/1 2/2/13 6/6/11
f 9/5/6 2/2/13 1/1/1
f 9/5/6 10/6/17 2/2/13
f 23/13/28 10/6/17 9/5/6
f 23/13/28 24/14/22 10/6/17
f 41/21/36 38/21/36 46/24/41
f 53/27/48 41/21/36 46/24/41
f 41/21/36 25/15/19 30/18/27
f 38/21/36 41/21/36 30/18/27
f 30/18/27 11/7/10 18/12/16
f 30/18/27 25/15/19 11/7/10
f 18/12/16 3/3/12 14/10/3
f 18/12/16 11/7/10 3/3/12
f 16/12/8 3/3/12 7/7/14
f 14/10/3 3/3/12 16/12/8
f 28/18/24 7/7/14 21/15/20
f 16/12/8 7/7/14 28/18/24
f 28/18/24 21/15/20 33/21/34
f 36/21/29 28/18/24 33/21/34
f 44/24/42 36/21/29 33/21/34
f 49/27/44 44/24/42 33/21/34
f 63/35/49 44/24/42 49/27/44
f 63/35/49 56/30/57 44/24/42
f 71/39/53 56/30/57 63/35/49
f 71/39/53 60/32/64 56/30/57
f 71/39/53 58/30/51 60/32/64
f 67/35/59 58/30/51 71/39/53
f 67/35/59 46/24/41 58/30/51
f 53/27/48 46/24/41 67/35/59
f 54/28/39 41/21/36 53/27/48
f 42/22/37 41/21/36 54/28/39
f 41/21/36 26/16/23 25/15/19
f 41/21/36 42/22/37 26/16/23
f 25/15/19 12/8/7 11/7/10
f 25/15/19 26/16/23 12/8/7
f 11/7/10 4/4/4 3/3/12
f 11/7/10 12/8/7 4/4/4
f 3/3/12 8/8/5 7/7/14
f 3/3/12 4/4/4 8/8/5
f 7/7/14 22/16/18 21/15/20
f 7/7/14 8/8/5 22/16/18
f 21/15/20 34/22/30 33/21/34
f 21/15/20 22/16/18 34/22/30
f 34/22/30 49/27/44 33/21/34
f 50/28/47 49/27/44 34/22/30
f 50/28/47 63/35/49 49/27/44
f 64/36/56 63/35/49 50/28/47
f 64/36/56 71/39/53 63/35/49
f 72/40/66 71/39/53 64/36/56
f 72/40/66 67/35/59 71/39/53
f 68/36/61 67/35/59 72/40/66
f 68/36/61 53/27/48 67/35/59
f 54/28/39 53/27/48 68/36/61
