####
#
#	OBJ File Generated by LightWave3D
#	LightWave3D OBJ Export v2.3
#
####
o rocket.obj
mtllib rocket.mtl
g default
v -0.0315 -0.0035 0.14
v -0.0315 -0.0035 0.085
v -0.0315 0 0.045
v -0.0315 0 -0.085
v -0.0315 0.0035 0.14
v -0.0315 0.0035 0.085
v -0.0272798 -0.01575 0.045
v -0.0272798 -0.01575 -0.085
v -0.0272798 0.01575 0.045
v -0.0272798 0.01575 -0.085
v -0.0206296 0 0.07
v -0.0178658 -0.0103148 0.07
v -0.0178658 0.0103148 0.07
v -0.01575 -0.0272798 0.045
v -0.01575 -0.0272798 -0.085
v -0.01575 0.0272798 0.045
v -0.01575 0.0272798 -0.085
v -0.0103148 -0.0178658 0.07
v -0.0103148 0.0178658 0.07
v -0.0035 -0.0315 0.14
v -0.0035 -0.0315 0.085
v -0.0035 0 0.102
v -0.0035 0 0.04
v -0.0035 0.0315 0.14
v -0.0035 0.0315 0.085
v -2.14313e-019 0.0035 0.102
v -2.14313e-019 0.0035 0.04
v 0 -0.0315 0.045
v 0 -0.0315 -0.085
v 0 -0.0206296 0.07
v 0 0 -0.14
v 0 0.0206296 0.07
v 0 0.0315 0.045
v 0 0.0315 -0.085
v 2.14313e-019 -0.0035 0.102
v 2.14313e-019 -0.0035 0.04
v 0.0035 -0.0315 0.14
v 0.0035 -0.0315 0.085
v 0.0035 0 0.102
v 0.0035 0 0.04
v 0.0035 0.0315 0.14
v 0.0035 0.0315 0.085
v 0.0103148 -0.0178658 0.07
v 0.0103148 0.0178658 0.07
v 0.01575 -0.0272798 0.045
v 0.01575 -0.0272798 -0.085
v 0.01575 0.0272798 0.045
v 0.01575 0.0272798 -0.085
v 0.0178658 -0.0103148 0.07
v 0.0178658 0.0103148 0.07
v 0.0206296 0 0.07
v 0.0272798 -0.01575 0.045
v 0.0272798 -0.01575 -0.085
v 0.0272798 0.01575 0.045
v 0.0272798 0.01575 -0.085
v 0.0315 -0.0035 0.14
v 0.0315 -0.0035 0.085
v 0.0315 0 0.045
v 0.0315 0 -0.085
v 0.0315 0.0035 0.14
v 0.0315 0.0035 0.085
vt 0.395 0.0333333
vt 0.395 0.216667
vt 0.395 0.35
vt 0.395 0.783333
vt 0.409067 0.35
vt 0.409067 0.783333
vt 0.431235 0.266667
vt 0.440447 0.266667
vt 0.4475 0.35
vt 0.4475 0.783333
vt 0.465617 0.266667
vt 0.488333 0.0333333
vt 0.488333 0.16
vt 0.488333 0.216667
vt 0.488333 0.366667
vt 0.5 0.16
vt 0.5 0.266667
vt 0.5 0.35
vt 0.5 0.366667
vt 0.5 0.783333
vt 0.5 0.966667
vt 0.511667 0.0333333
vt 0.511667 0.16
vt 0.511667 0.216667
vt 0.511667 0.366667
vt 0.534383 0.266667
vt 0.5525 0.35
vt 0.5525 0.783333
vt 0.559552 0.266667
vt 0.568765 0.266667
vt 0.590933 0.35
vt 0.590933 0.783333
vt 0.605 0.0333333
vt 0.605 0.216667
vt 0.605 0.35
vt 0.605 0.783333
vn -0.976968 0.0551105 -0.206149
vn -0.971701 -0.0389308 0.232986
vn -0.888707 0.171049 0.425373
vn -0.880377 0.445364 0.163058
vn -0.873634 -0.440757 -0.206149
vn -0.867482 0 -0.497468
vn -0.844697 0.464315 -0.266267
vn -0.827538 -0.190433 0.528126
vn -0.825884 -0.539747 0.163058
vn -0.818523 0.536211 -0.206149
vn -0.658241 -0.723647 -0.207492
vn -0.585157 -0.315844 0.746883
vn -0.563038 0.801006 0.203412
vn -0.540231 0 0.841517
vn -0.536211 -0.818523 -0.206149
vn -0.533946 -0.308274 0.787317
vn -0.486389 -0.849549 0.204187
vn -0.467854 0.270116 0.841517
vn -0.464315 -0.844697 -0.266267
vn -0.464315 0.844697 -0.266267
vn -0.440757 0.873634 -0.206149
vn -0.315844 0.585157 0.746883
vn -0.273057 -0.59329 0.757263
vn -0.272342 -0.586815 0.762547
vn -0.228063 0.491408 0.840539
vn -0.190433 0.827538 0.528126
vn -0.171049 -0.888707 0.425373
vn 0 -0.985145 -0.171723
vn 0 -0.962481 0.271348
vn 0 -0.708431 0.705779
vn 0 -0.657179 -0.753735
vn 0 1.02609e-008 -1
vn 0 0.708432 0.705779
vn 0 0.867482 -0.497468
vn 0 0.966088 -0.258213
vn 1.96435e-009 0.978932 0.204188
vn 0.171049 0.888707 0.425373
vn 0.228063 -0.491408 0.840539
vn 0.272342 0.586815 0.762547
vn 0.440757 0.873634 -0.206149
vn 0.467854 -0.270116 0.841517
vn 0.486389 -0.849549 0.204187
vn 0.533946 0.308274 0.787317
vn 0.536211 -0.818523 -0.206149
vn 0.540231 0 0.841517
vn 0.563038 0.801006 0.203412
vn 0.585157 0.719814 0.373441
vn 0.59329 -0.273057 0.757263
vn 0.657179 0 -0.753735
vn 0.658241 -0.723647 -0.207492
vn 0.719814 -0.585157 0.373441
vn 0.723647 -0.658241 -0.207492
vn 0.723647 0.658241 -0.207492
vn 0.818523 0.536211 -0.206149
vn 0.825884 -0.539747 0.163058
vn 0.844697 0.464315 -0.266267
vn 0.873634 -0.440757 -0.206149
vn 0.880377 0.445363 0.163058
vn 0.888707 -0.171049 0.425373
vn 0.971701 -0.0389308 0.232985
vn 0.976968 0.0551105 -0.206149
usemtl Default
s off
f 44/26/39 32/17/33 19/11/25
f 44/26/39 19/11/25 50/29/43
f 50/29/43 19/11/25 13/8/18
f 50/29/43 13/8/18 51/30/45
f 51/30/45 13/8/18 49/29/41
f 13/8/18 11/7/14 49/29/41
f 49/29/41 11/7/14 12/8/16
f 49/29/41 12/8/16 43/26/38
f 43/26/38 18/11/24 30/17/30
f 12/8/16 18/11/24 43/26/38
f 48/28/40 33/18/36 47/27/46
f 34/20/35 33/18/36 48/28/40
f 55/32/54 47/27/46 54/31/58
f 48/28/40 47/27/46 55/32/54
f 59/36/61 54/31/58 58/35/60
f 55/32/54 54/31/58 59/36/61
f 53/32/57 58/35/60 52/31/55
f 59/36/61 58/35/60 53/32/57
f 46/28/44 52/31/55 45/27/42
f 53/32/57 52/31/55 46/28/44
f 29/20/28 45/27/42 28/18/29
f 46/28/44 45/27/42 29/20/28
f 14/9/17 29/20/28 28/18/29
f 14/9/17 15/10/15 29/20/28
f 7/5/9 15/10/15 14/9/17
f 7/5/9 8/6/5 15/10/15
f 3/3/2 8/6/5 7/5/9
f 3/3/2 4/4/1 8/6/5
f 9/5/4 4/4/1 3/3/2
f 9/5/4 10/6/10 4/4/1
f 16/9/13 10/6/10 9/5/4
f 16/9/13 17/10/21 10/6/10
f 33/18/36 17/10/21 16/9/13
f 33/18/36 34/20/35 17/10/21
f 34/20/35 48/28/40 31/21/32
f 17/10/21 34/20/35 31/21/32
f 10/6/10 17/10/21 31/21/32
f 10/6/10 31/21/32 4/4/1
f 4/4/1 31/21/32 8/6/5
f 8/6/5 31/21/32 15/10/15
f 15/10/15 31/21/32 29/20/28
f 31/21/32 46/28/44 29/20/28
f 31/21/32 53/32/57 46/28/44
f 31/21/32 59/36/61 53/32/57
f 31/21/32 55/32/54 59/36/61
f 48/28/40 55/32/54 31/21/32
f 33/18/36 16/9/13 19/11/25
f 32/17/33 33/18/36 19/11/25
f 33/18/36 32/17/33 44/26/39
f 47/27/46 33/18/36 44/26/39
f 47/27/46 44/26/39 50/29/43
f 54/31/58 47/27/46 50/29/43
f 58/35/60 50/29/43 51/30/45
f 54/31/58 50/29/43 58/35/60
f 58/35/60 49/29/41 52/31/55
f 58/35/60 51/30/45 49/29/41
f 49/29/41 43/26/38 45/27/42
f 52/31/55 49/29/41 45/27/42
f 43/26/38 30/17/30 28/18/29
f 45/27/42 43/26/38 28/18/29
f 18/11/24 14/9/17 28/18/29
f 30/17/30 18/11/24 28/18/29
f 12/8/16 7/5/9 14/9/17
f 18/11/24 12/8/16 14/9/17
f 12/8/16 3/3/2 7/5/9
f 11/7/14 3/3/2 12/8/16
f 13/8/18 3/3/2 11/7/14
f 13/8/18 9/5/4 3/3/2
f 16/9/13 9/5/4 13/8/18
f 19/11/25 16/9/13 13/8/18
f 5/1/26 6/2/7 1/1/23
f 6/2/7 2/2/11 1/1/23
f 61/34/56 60/33/22 56/33/51
f 57/34/50 61/34/56 56/33/51
f 60/33/22 35/16/27 56/33/51
f 60/33/22 26/16/37 35/16/27
f 26/16/37 5/1/26 1/1/23
f 35/16/27 26/16/37 1/1/23
f 36/19/31 61/34/56 57/34/50
f 27/19/34 61/34/56 36/19/31
f 6/2/7 36/19/31 2/2/11
f 6/2/7 27/19/34 36/19/31
f 36/19/31 57/34/50 35/16/27
f 35/16/27 57/34/50 56/33/51
f 2/2/11 35/16/27 1/1/23
f 2/2/11 36/19/31 35/16/27
f 61/34/56 26/16/37 60/33/22
f 61/34/56 27/19/34 26/16/37
f 27/19/34 6/2/7 26/16/37
f 26/16/37 6/2/7 5/1/26
f 21/14/19 37/22/48 20/12/8
f 21/14/19 38/24/52 37/22/48
f 25/14/20 24/12/12 41/22/47
f 42/24/53 25/14/20 41/22/47
f 41/22/47 24/12/12 39/23/59
f 24/12/12 22/13/3 39/23/59
f 22/13/3 20/12/8 37/22/48
f 39/23/59 22/13/3 37/22/48
f 25/14/20 42/24/53 40/25/49
f 25/14/20 40/25/49 23/15/6
f 40/25/49 38/24/52 21/14/19
f 23/15/6 40/25/49 21/14/19
f 40/25/49 42/24/53 39/23/59
f 42/24/53 41/22/47 39/23/59
f 38/24/52 39/23/59 37/22/48
f 40/25/49 39/23/59 38/24/52
f 24/12/12 25/14/20 22/13/3
f 25/14/20 23/15/6 22/13/3
f 22/13/3 23/15/6 21/14/19
f 22/13/3 21/14/19 20/12/8
